<svg width="24" height="24" viewBox="0 0 24 24" fill="none" xmlns="http://www.w3.org/2000/svg">
<g clip-path="url(#clip0_5_99)">
<path d="M21.8522 7.66227L14.3189 1.63562C12.8467 0.46249 10.5465 0.450989 9.08584 1.62412L1.55253 7.66227C0.471418 8.52486 -0.184152 10.25 0.0458724 11.6072L1.49503 20.2791C1.82856 22.2228 3.63426 23.7525 5.60097 23.7525H17.7923C19.736 23.7525 21.5762 22.1883 21.9097 20.2676L23.3589 11.5957C23.5659 10.25 22.9103 8.52486 21.8522 7.66227ZM12.5592 19.152C12.5592 19.6236 12.1682 20.0146 11.6966 20.0146C11.2251 20.0146 10.834 19.6236 10.834 19.152V15.7016C10.834 15.2301 11.2251 14.839 11.6966 14.839C12.1682 14.839 12.5592 15.2301 12.5592 15.7016V19.152Z" fill="#EBD3F8"/>
</g>
<defs>
<clipPath id="clip0_5_99">
<rect width="24" height="24" fill="white"/>
</clipPath>
</defs>
</svg>
