<svg width="16" height="17" viewBox="0 0 16 17" fill="none" xmlns="http://www.w3.org/2000/svg">
<path d="M15.3333 8.5L13.7067 6.64L13.9333 4.18L11.5267 3.63333L10.2667 1.5L7.99999 2.47333L5.73332 1.5L4.47332 3.62667L2.06666 4.16667L2.29332 6.63333L0.666656 8.5L2.29332 10.36L2.06666 12.8267L4.47332 13.3733L5.73332 15.5L7.99999 14.52L10.2667 15.4933L11.5267 13.3667L13.9333 12.82L13.7067 10.36L15.3333 8.5ZM6.25332 11.1733L4.66666 9.57333C4.60485 9.51166 4.55582 9.4384 4.52237 9.35775C4.48891 9.2771 4.47169 9.19065 4.47169 9.10333C4.47169 9.01602 4.48891 8.92957 4.52237 8.84892C4.55582 8.76827 4.60485 8.69501 4.66666 8.63333L4.71332 8.58667C4.97332 8.32667 5.39999 8.32667 5.65999 8.58667L6.73332 9.66667L10.1667 6.22667C10.4267 5.96667 10.8533 5.96667 11.1133 6.22667L11.16 6.27333C11.42 6.53333 11.42 6.95333 11.16 7.21333L7.21332 11.1733C6.93999 11.4333 6.51999 11.4333 6.25332 11.1733Z" fill="#30A2FF"/>
</svg>
