<svg width="32" height="32" viewBox="0 0 32 32" fill="none" xmlns="http://www.w3.org/2000/svg">
<path d="M4 5.33332C4 3.86056 5.19391 2.66666 6.66667 2.66666H9.33333C9.81905 2.66666 10.2744 2.79651 10.6667 3.02342C11.0589 2.79651 11.5143 2.66666 12 2.66666H14.6667C15.6365 2.66666 16.4855 3.18444 16.9521 3.95868C17.2313 3.73519 17.5603 3.56454 17.9279 3.46606L20.5036 2.77587C21.9263 2.3947 23.3884 3.23891 23.7696 4.66148L29.2911 25.2679C29.6723 26.6905 28.8281 28.1527 27.4055 28.5339L24.8297 29.2241C23.4071 29.6052 21.9449 28.7611 21.5637 27.3385L17.3333 11.5505V26.6667C17.3333 28.1395 16.1395 29.3333 14.6667 29.3333H12C11.5143 29.3333 11.0589 29.2035 10.6667 28.9765C10.2744 29.2035 9.81905 29.3333 9.33333 29.3333H6.66667C5.19391 29.3333 4 28.1395 4 26.6667V5.33332Z" fill="white"/>
</svg>
