<svg width="33" height="13" viewBox="0 0 33 13" fill="none" xmlns="http://www.w3.org/2000/svg">
<g clip-path="url(#clip0_189_290)">
<path d="M15.335 11.585C15.335 11.2535 15.4667 10.9355 15.7011 10.7011C15.9355 10.4667 16.2534 10.335 16.585 10.335C16.9165 10.335 17.2344 10.4667 17.4688 10.7011C17.7033 10.9355 17.835 11.2535 17.835 11.585C17.835 11.9165 17.7033 12.2345 17.4688 12.4689C17.2344 12.7033 16.9165 12.835 16.585 12.835C16.2534 12.835 15.9355 12.7033 15.7011 12.4689C15.4667 12.2345 15.335 11.9165 15.335 11.585ZM15.335 6.58499C15.335 6.25347 15.4667 5.93553 15.7011 5.70111C15.9355 5.46669 16.2534 5.33499 16.585 5.33499C16.9165 5.33499 17.2344 5.46669 17.4688 5.70111C17.7033 5.93553 17.835 6.25347 17.835 6.58499C17.835 6.91651 17.7033 7.23445 17.4688 7.46887C17.2344 7.7033 16.9165 7.83499 16.585 7.83499C16.2534 7.83499 15.9355 7.7033 15.7011 7.46887C15.4667 7.23445 15.335 6.91651 15.335 6.58499ZM15.335 1.58499C15.335 1.25347 15.4667 0.935528 15.7011 0.701108C15.9355 0.466688 16.2534 0.334991 16.585 0.334991C16.9165 0.334991 17.2344 0.466688 17.4688 0.701108C17.7033 0.935528 17.835 1.25347 17.835 1.58499C17.835 1.91651 17.7033 2.23445 17.4688 2.46887C17.2344 2.7033 16.9165 2.83499 16.585 2.83499C16.2534 2.83499 15.9355 2.7033 15.7011 2.46887C15.4667 2.23445 15.335 1.91651 15.335 1.58499Z" fill="white" fill-opacity="0.5"/>
</g>
<defs>
<clipPath id="clip0_189_290">
<rect width="32.83" height="12.5" fill="white" transform="translate(0.169983 0.334991)"/>
</clipPath>
</defs>
</svg>
